<?xml version="1.0" encoding="utf-8"?>
<!-- Generator: Adobe Illustrator 17.0.0, SVG Export Plug-In . SVG Version: 6.00 Build 0)  -->
<!DOCTYPE svg PUBLIC "-//W3C//DTD SVG 1.1//EN" "http://www.w3.org/Graphics/SVG/1.1/DTD/svg11.dtd">
<svg version="1.1" id="图层_1" xmlns="http://www.w3.org/2000/svg" xmlns:xlink="http://www.w3.org/1999/xlink" x="0px" y="0px"
	 width="1466.935px" height="803.391px" viewBox="0 0 1466.935 803.391" enable-background="new 0 0 1466.935 803.391"
	 xml:space="preserve">
<g id="XMLID_71_">
	<path id="XMLID_550_" fill="none" d="M1058.826,552.391c0,86.696,70.543,157.239,157.239,157.239
		c86.478,0,156.804-70.196,157.174-156.587c-0.37-86.391-70.696-156.587-157.174-156.587v-1.326
		C1129.37,395.152,1058.826,465.696,1058.826,552.391z"/>
	<path id="XMLID_1117_" fill="none" d="M1319.674,197.804c0-57.13-46.478-103.609-103.609-103.609
		c-57.13,0-103.609,46.478-103.609,103.609s46.478,103.609,103.609,103.609C1273.196,301.413,1319.674,254.935,1319.674,197.804z"/>
	<path id="XMLID_1118_" fill="#188BCC" d="M1112.456,197.804c0-57.13,46.478-103.609,103.609-103.609
		c57.13,0,103.609,46.478,103.609,103.609s-46.478,103.609-103.609,103.609c49.63,0,95.652,14.935,134.63,39.891
		c38.37-36.022,62.717-86.826,62.717-143.478c0-108.826-88.543-197.348-197.348-197.348c-108.826,0-197.348,88.522-197.348,197.348
		c0,56.674,24.348,107.456,62.717,143.478c39-24.957,85-39.891,134.63-39.891C1158.935,301.413,1112.456,254.935,1112.456,197.804z"
		/>
	<path id="XMLID_1119_" fill="#F4C31E" d="M1467,553.043c0-0.217,0.065-0.435,0.065-0.652c0-88.761-46.609-166.478-116.348-211.109
		c-0.304,0.283-0.652,0.5-0.956,0.783C1419.826,386.5,1466.761,464.174,1467,553.043z"/>
	<path id="XMLID_1120_" fill="#F4C420" d="M1373.239,553.043c-0.37,86.391-70.696,156.587-157.174,156.587
		c-86.696,0-157.239-70.543-157.239-157.239s70.543-157.239,157.239-157.239c-52.152,0-99.304-20.717-134.63-53.87
		c-69.739,44.63-116.348,122.348-116.348,211.109c0,138.391,112.587,251,250.978,251c137.957,0,250.13-111.913,250.87-249.696
		h-93.63C1373.304,553.478,1373.239,553.283,1373.239,553.043z"/>
	<path id="XMLID_1122_" fill="#1889C3" d="M1216.065,302.717c49.239,0,94.891,14.761,133.674,39.348
		c0.304-0.283,0.652-0.5,0.957-0.783c-39-24.957-85.022-39.891-134.63-39.891c-49.63,0-95.652,14.935-134.63,39.891
		c35.326,33.152,82.478,53.87,134.63,53.87V302.717z"/>
	<path id="XMLID_1121_" fill="#137239" d="M1216.065,302.717c49.239,0,94.891,14.761,133.674,39.348
		c0.304-0.283,0.652-0.5,0.957-0.783c-39-24.957-85.022-39.891-134.63-39.891c-49.63,0-95.652,14.935-134.63,39.891
		c35.326,33.152,82.478,53.87,134.63,53.87V302.717z"/>
	<path id="XMLID_1123_" fill="#E51C77" d="M1466.935,553.696h0.13c0-0.217-0.065-0.435-0.065-0.652
		C1467,553.283,1466.935,553.478,1466.935,553.696z"/>
	<path id="XMLID_1124_" fill="#E51C77" d="M1373.239,553.043c0-0.217,0.065-0.435,0.065-0.652
		c0-86.696-70.543-157.239-157.239-157.239v1.326C1302.543,396.478,1372.891,466.652,1373.239,553.043z"/>
	<path id="XMLID_1126_" fill="#F4C31E" d="M1349.761,342.087c-35.217,32.652-81.978,53.087-133.674,53.087
		c86.696,0,157.239,70.543,157.239,157.239c0,0.217-0.065,0.435-0.065,0.652s0.065,0.435,0.065,0.652h93.63
		c0-0.217,0.065-0.435,0.065-0.652C1466.761,464.174,1419.826,386.5,1349.761,342.087z"/>
	<path id="XMLID_1125_" fill="#E22012" d="M1349.761,342.087c-35.217,32.652-81.978,53.087-133.674,53.087
		c86.696,0,157.239,70.543,157.239,157.239c0,0.217-0.065,0.435-0.065,0.652s0.065,0.435,0.065,0.652h93.63
		c0-0.217,0.065-0.435,0.065-0.652C1466.761,464.174,1419.826,386.5,1349.761,342.087z"/>
	<path id="XMLID_1129_" fill="#1889C3" d="M1216.065,395.152c51.717,0,98.457-20.413,133.674-53.087
		c-38.804-24.587-84.435-39.348-133.674-39.348V395.152z"/>
	<path id="XMLID_1128_" fill="#F4C31E" d="M1216.065,395.152c51.717,0,98.457-20.413,133.674-53.087
		c-38.804-24.587-84.435-39.348-133.674-39.348V395.152z"/>
	<path id="XMLID_1127_" fill="#050203" d="M1216.065,395.152c51.717,0,98.457-20.413,133.674-53.087
		c-38.804-24.587-84.435-39.348-133.674-39.348V395.152z"/>
	<rect id="XMLID_1130_" x="625.152" y="229.13" fill="#E51C77" width="93.739" height="317.891"/>
	<path id="XMLID_1131_" fill="#188BCC" d="M747.761,558.152c0,83.522-67.956,151.478-151.478,151.478v93.761
		C731.5,803.391,841.5,693.37,841.5,558.152V0h-93.739V558.152z"/>
	<path id="XMLID_1132_" fill="#188BCC" d="M337.891,476.543l-66.37-0.522l-0.37,93.761l66.565,0.522
		c94.761,0,171.848-77.087,171.848-171.848s-77.109-171.848-171.848-171.848h-66.5c-94.761,0-171.87,77.087-171.87,171.848v233.109
		h93.761v-233.13c0-43.065,35.043-78.087,78.109-78.087h66.5c43.065,0,78.109,35.022,78.109,78.087S380.783,476.543,337.891,476.543
		z"/>
	<path id="XMLID_1133_" fill="#188BCC" d="M271.217,803.391h210.804V709.63H271.217c-43.065,0-78.109-35.022-78.109-78.087H99.348
		C99.348,726.304,176.457,803.391,271.217,803.391z"/>
	<path id="XMLID_1134_" fill="#F4C420" d="M545.913,109.63C523.761,44.326,462.565,0.457,393.609,0.457H215.326
		c-68.957,0-130.152,43.87-152.304,109.174L0,295.543l88.804,30.087l63.022-185.913c9.239-27.217,34.761-45.522,63.522-45.522
		H393.63c28.761,0,54.283,18.304,63.522,45.522l63.022,185.913l88.783-30.109L545.913,109.63z"/>
</g>
</svg>
